<svg version="1.1" xmlns="http://www.w3.org/2000/svg" style="display: block;" viewBox="0 0 2048 2048" width="2048" height="2048" preserveAspectRatio="none">
<path transform="translate(0,0)" fill="rgb(254,255,254)" d="M 0 0 L 2048 0 L 2048 2048 L 0 2048 L 0 0 z"/>
<path transform="translate(0,0)" fill="rgb(10,40,77)" d="M 1047.14 538.133 C 1024.71 544.774 1005.15 528.792 1011.63 505.997 C 1013.73 498.645 1018.69 492.44 1025.4 488.764 C 1038.65 481.621 1054.12 488.224 1061.32 501.219 C 1065.44 508.664 1063.81 516.996 1061.41 524.821 C 1074.25 535.912 1084.09 545.61 1095.73 557.827 C 1113.77 546.043 1133.62 537.302 1154.5 531.951 C 1238.39 510.949 1326.24 543.145 1370.95 618.641 C 1381 635.612 1385.65 651.068 1390.29 669.939 L 1392 670.476 C 1432.77 683.304 1457.74 703.715 1477.31 741.34 C 1445.62 750.9 1420.65 767.52 1390.23 777.459 L 1389.89 875.655 C 1389.77 907.597 1390.37 937.439 1385.77 969.102 C 1372.57 1059.88 1329.17 1130.23 1256.43 1185.19 C 1325.68 1171.09 1392.97 1148.64 1456.83 1118.35 C 1634.28 1032.72 1564.54 963.861 1416.8 916.449 L 1417.2 883.806 C 1424.64 886.126 1432.07 888.512 1439.48 890.964 C 1491.29 908.405 1559.48 937.218 1586.23 988.046 C 1595.61 1005.89 1594.12 1023.77 1592.45 1043.23 C 1588.62 1087.02 1579.32 1130.17 1564.79 1171.66 C 1511.77 1319.25 1402.58 1439.91 1261.01 1507.37 C 1127.93 1571.23 974.784 1578.97 835.948 1528.85 C 692.926 1478.27 570.551 1365.31 505.635 1228.54 C 478.78 1172.21 461.925 1111.63 455.822 1049.52 C 454.181 1031.69 452.261 1012.94 458.609 995.935 C 473.057 957.237 515.58 930.833 551.148 914.498 C 533.151 896.829 515.275 879.038 497.521 861.125 C 533.025 845.509 555.177 841.39 593.826 846.264 C 590.345 840.961 587.002 835.569 583.8 830.093 C 555.02 781.369 548.699 737.411 562.571 683.243 C 652.504 711.034 717.861 774.736 763.833 855.002 C 824.087 843.974 882.106 839.865 942.946 836.16 L 908.066 869.443 C 861.754 872.495 824.806 876.86 778.939 883.531 C 784.177 894.962 789.349 906.423 794.453 917.914 C 800.151 931.962 805.365 944.525 809.529 959.17 C 812.775 968.727 815.737 980.504 818.484 990.356 C 865.775 945.103 913.274 898.653 961.332 854.61 C 1001.93 821.303 1011.19 774.432 1010.79 723.492 C 1010.32 664.122 1031.5 613.109 1076.33 572.864 C 1066.7 561.208 1056.97 549.63 1047.14 538.133 z"/>
<path transform="translate(0,0)" fill="rgb(254,255,254)" d="M 775.915 1213.22 C 817.548 1221 853.637 1226.91 895.768 1231.75 C 962.325 1287.64 1043.53 1323.25 1129.73 1334.34 C 1263.52 1351.5 1402.65 1306.62 1508.52 1224.88 C 1500.96 1239.06 1484.36 1271.21 1473.81 1283.22 C 1465.38 1296.43 1424.16 1352.8 1413.74 1359.24 C 1398.22 1375.16 1373 1400.45 1354.48 1412.43 C 1347.07 1417.23 1314.15 1426.57 1304.28 1429.05 C 1222.18 1449.89 1136.08 1449.04 1054.42 1426.59 C 938.517 1394.52 835.546 1318.25 775.915 1213.22 z"/>
<path transform="translate(0,0)" fill="rgb(59,144,209)" d="M 834.889 1251.87 C 851.266 1254.87 868.499 1256.98 885.057 1259.22 C 937.796 1302.3 999.141 1333.59 1064.97 1351 C 1173.81 1378.94 1288.85 1369.86 1391.96 1325.2 C 1420.25 1313.27 1447.28 1298.62 1473.81 1283.22 C 1465.38 1296.43 1424.16 1352.8 1413.74 1359.24 C 1411.15 1359.43 1367.91 1379.45 1360.18 1382.39 C 1287.74 1410.46 1209.66 1420.84 1132.4 1412.67 C 1018.64 1399.98 906.642 1341.62 834.889 1251.87 z"/>
<path transform="translate(0,0)" fill="rgb(59,144,209)" d="M 765.681 1083.45 C 812.138 1038.14 858.877 993.113 905.897 948.383 C 916.252 938.495 927.205 928.395 937.384 918.406 C 976.597 879.925 1008.34 846.986 1068.15 856.562 C 1070.86 863.621 1073.28 870.99 1075.73 878.158 C 1086.66 915.758 1084.18 949.818 1065.12 984.325 C 1039.1 1031.45 990.446 1057.17 940.115 1071.12 C 898.531 1082.65 851.228 1087.54 808.083 1086.58 C 803.716 1086.48 790.743 1086.16 787.315 1085.48 L 765.681 1083.45 z"/>
<path transform="translate(0,0)" fill="rgb(213,237,252)" d="M 765.681 1083.45 C 812.138 1038.14 858.877 993.113 905.897 948.383 C 916.252 938.495 927.205 928.395 937.384 918.406 C 976.597 879.925 1008.34 846.986 1068.15 856.562 C 1070.86 863.621 1073.28 870.99 1075.73 878.158 C 1066.84 881.428 1037.51 870.387 1011.14 884.479 C 973.695 904.49 953.287 932.459 925.038 956.981 C 908.854 971.03 794.21 1084.27 787.315 1085.48 L 765.681 1083.45 z"/>
<path transform="translate(0,0)" fill="rgb(10,40,77)" d="M 1052.8 910.605 C 1057.99 908.084 1064.24 910.249 1066.77 915.441 C 1069.29 920.633 1067.13 926.887 1061.94 929.411 C 1056.74 931.937 1050.48 929.773 1047.96 924.578 C 1045.44 919.384 1047.6 913.127 1052.8 910.605 z"/>
<path transform="translate(0,0)" fill="rgb(254,255,254)" d="M 956.106 1237.6 C 1119.83 1245.2 1278.59 1228.17 1431.13 1164.14 C 1474.93 1145.76 1517.49 1124.12 1553.82 1093.22 C 1550.33 1108.19 1546.67 1123.11 1542.86 1137.99 C 1534.63 1164.22 1534.67 1163.35 1513.54 1181.27 C 1482.61 1207.82 1448.73 1230.72 1412.57 1249.52 C 1366.93 1273.4 1334.21 1283.99 1285.16 1296.42 C 1291.44 1282.77 1303.87 1250.42 1304.3 1236.41 L 1270.31 1244.31 C 1263.68 1266.65 1256.72 1282.31 1246.44 1302.82 C 1179.54 1309.52 1125.82 1307.58 1060.57 1287.23 C 1042.48 1281.59 1027.25 1274.02 1010.83 1268.35 C 989.271 1257.62 976.475 1250.48 956.106 1237.6 z"/>
<path transform="translate(0,0)" fill="rgb(59,144,209)" d="M 1304.3 1236.41 C 1388.61 1216.69 1469.17 1183.46 1542.86 1137.99 C 1534.63 1164.22 1534.67 1163.35 1513.54 1181.27 C 1482.61 1207.82 1448.73 1230.72 1412.57 1249.52 C 1366.93 1273.4 1334.21 1283.99 1285.16 1296.42 C 1291.44 1282.77 1303.87 1250.42 1304.3 1236.41 z"/>
<path transform="translate(0,0)" fill="rgb(59,144,209)" d="M 1010.83 1268.35 C 1097.97 1270.69 1185.08 1262.62 1270.31 1244.31 C 1263.68 1266.65 1256.72 1282.31 1246.44 1302.82 C 1179.54 1309.52 1125.82 1307.58 1060.57 1287.23 C 1042.48 1281.59 1027.25 1274.02 1010.83 1268.35 z"/>
<path transform="translate(0,0)" fill="rgb(59,144,209)" d="M 1358.1 850.892 C 1360.76 854.394 1359.25 894.864 1359.14 902.426 C 1351.07 903.411 1344.81 904.306 1336.88 906.193 C 1290.71 917.179 1254.3 951.29 1235.36 994.17 C 1229.79 1007.03 1226.01 1020.77 1221.2 1033.92 C 1191.08 1116.28 1124.45 1174.77 1039.19 1195.11 C 979.369 1209.39 924.743 1201.88 871.926 1169.12 C 874.528 1168.41 914.351 1169.29 921.307 1169.12 C 1001.18 1167.14 1092.43 1139.11 1145.06 1077.52 C 1198.74 1014.72 1202.5 939.77 1155.56 874.712 C 1217.93 879.95 1302.48 882.789 1358.1 850.892 z"/>
<path transform="translate(0,0)" fill="rgb(156,210,244)" d="M 1044.12 691.212 C 1056.8 612.292 1119.91 559.786 1199.08 556.726 C 1201.43 562.832 1203.7 568.966 1205.9 575.126 C 1213.95 598.643 1216.65 616.944 1219.32 641.402 C 1201.2 646.25 1187.51 653.58 1177.69 670.429 C 1169.79 684.276 1167.82 700.725 1172.22 716.047 C 1176.66 731.155 1186.97 743.851 1200.85 751.29 C 1208.61 755.512 1214.21 756.774 1222.62 758.54 L 1222.61 847.464 C 1190.09 847.775 1157.58 845.714 1125.35 841.296 C 1124.99 826.151 1124.7 811.004 1124.5 795.856 C 1124.24 775.141 1125.46 755.632 1116.87 736.169 C 1106.46 712.59 1085.06 700.116 1060.69 694.522 C 1055.69 693.199 1049.3 692.182 1044.12 691.212 z"/>
<path transform="translate(0,0)" fill="rgb(213,237,252)" d="M 1044.12 691.212 C 1056.8 612.292 1119.91 559.786 1199.08 556.726 C 1201.43 562.832 1203.7 568.966 1205.9 575.126 C 1202.64 577.516 1181.32 578.794 1174.67 580.348 C 1114.95 594.314 1076.02 636.208 1060.69 694.522 C 1055.69 693.199 1049.3 692.182 1044.12 691.212 z"/>
<path transform="translate(0,0)" fill="rgb(59,144,209)" d="M 1087.85 861.692 C 1118.36 874.995 1136.98 892.373 1149.44 923.989 C 1153.6 934.512 1156.2 945.586 1157.17 956.862 C 1159.5 971.239 1156.58 990.705 1152.25 1004.51 C 1127.97 1081.91 1044.13 1122.01 969.259 1133.71 C 899.128 1144.66 823.644 1138.12 755.677 1117.98 C 749.813 1116.6 742.245 1114.02 736.343 1112.19 C 740.88 1107.4 746.108 1102.38 750.809 1097.68 C 757.984 1099.16 766.733 1100 774.13 1100.89 C 814.593 1104.68 855.368 1103.51 895.545 1097.39 C 976.351 1084.77 1063.22 1049.43 1091.01 965.324 C 1100.08 937.874 1098.97 914.443 1094.58 886.594 C 1092.56 877.378 1090.67 870.717 1087.85 861.692 z"/>
<path transform="translate(0,0)" fill="rgb(213,237,252)" d="M 1087.85 861.692 C 1118.36 874.995 1136.98 892.373 1149.44 923.989 C 1153.6 934.512 1156.2 945.586 1157.17 956.862 C 1157.07 959.621 1156.9 961.583 1156.61 964.296 C 1155.01 962.887 1151.9 949.79 1150.57 946.745 C 1138.41 918.831 1121.08 899.752 1094.58 886.594 C 1092.56 877.378 1090.67 870.717 1087.85 861.692 z"/>
<path transform="translate(0,0)" fill="rgb(213,237,252)" d="M 750.809 1097.68 C 757.984 1099.16 766.733 1100 774.13 1100.89 C 768.046 1106.51 761.634 1112.26 755.677 1117.98 C 749.813 1116.6 742.245 1114.02 736.343 1112.19 C 740.88 1107.4 746.108 1102.38 750.809 1097.68 z"/>
<path transform="translate(0,0)" fill="rgb(59,144,209)" d="M 566.855 1274.4 C 571.698 1275.74 605.145 1290.39 608.249 1293.59 C 611.885 1297.34 624.39 1313.2 630.038 1319.16 C 650.283 1340.58 672.492 1360.05 696.374 1377.33 C 804.029 1455.35 923.057 1486.71 1055.02 1481.99 C 1070.86 1481.37 1086.66 1479.99 1102.37 1477.85 C 1110.01 1476.8 1127.34 1473.74 1133.99 1473.55 C 1146.61 1473.17 1162.69 1475.3 1176.21 1475.43 C 1207.56 1475.48 1238.87 1472.98 1269.81 1467.97 C 1259.63 1474.19 1247.82 1479.17 1236.87 1484.02 C 1215.35 1493.15 1196.89 1500.86 1174.21 1507.62 C 1093.98 1530.96 1009.43 1535.34 927.218 1520.41 C 797.416 1495.84 685.474 1426.08 602.515 1323.71 C 589.522 1307.67 578.453 1291.45 566.855 1274.4 z"/>
<path transform="translate(0,0)" fill="rgb(156,210,244)" d="M 1217.06 556.533 C 1261.9 561.664 1303.59 579.824 1332.11 615.909 C 1345.11 632.222 1354.09 651.369 1358.31 671.797 C 1364 684.519 1354.69 707.476 1355.37 721.019 C 1356.91 751.918 1363.95 780.503 1358.73 811.901 C 1336.73 841.355 1272.74 845.148 1238.41 846.957 C 1238.57 817.335 1238.54 787.712 1238.31 758.09 C 1246.82 756.112 1253.36 754.179 1260.91 749.5 C 1274.46 741.035 1283.86 727.305 1286.86 711.614 C 1289.98 696.008 1286.73 679.801 1277.83 666.605 C 1266.87 650.386 1253.28 644.239 1234.78 640.628 C 1232.92 616.14 1230.11 600.654 1223.95 576.965 C 1221.8 570.22 1219.67 563.073 1217.06 556.533 z"/>
<path transform="translate(0,0)" fill="rgb(213,237,252)" d="M 1217.06 556.533 C 1261.9 561.664 1303.59 579.824 1332.11 615.909 C 1345.11 632.222 1354.09 651.369 1358.31 671.797 L 1358.04 672.002 C 1356.23 671.278 1355.18 667.571 1354.33 665.612 C 1331.09 611.691 1281.06 581.972 1223.95 576.965 C 1221.8 570.22 1219.67 563.073 1217.06 556.533 z"/>
<path transform="translate(0,0)" fill="rgb(59,144,209)" d="M 493.36 1093.03 C 556.402 1147.51 657.675 1181.24 736.359 1203.66 C 741.843 1215.63 747.035 1225.18 753.396 1236.72 C 762.336 1251.25 771.779 1265.46 781.706 1279.32 C 791.004 1290.72 799.555 1301.72 809.698 1312.42 C 708.996 1298.13 628.452 1272.81 538.78 1224.57 C 531.676 1210.52 525.255 1196.14 519.539 1181.47 C 513.272 1165.7 508.347 1152.75 503.867 1136.4 C 499.791 1121.49 496.653 1108.15 493.36 1093.03 z"/>
<path transform="translate(0,0)" fill="rgb(254,255,254)" d="M 519.539 1181.47 C 522.727 1182.35 543.878 1195.63 549.011 1198.53 C 562.835 1206.34 576.921 1213.69 591.246 1220.54 C 652.313 1249.5 715.704 1266.47 781.706 1279.32 C 791.004 1290.72 799.555 1301.72 809.698 1312.42 C 708.996 1298.13 628.452 1272.81 538.78 1224.57 C 531.676 1210.52 525.255 1196.14 519.539 1181.47 z"/>
<path transform="translate(0,0)" fill="rgb(254,255,254)" d="M 493.36 1093.03 C 556.402 1147.51 657.675 1181.24 736.359 1203.66 C 741.843 1215.63 747.035 1225.18 753.396 1236.72 C 746.111 1236.03 719.573 1228.58 711.743 1226.44 C 637.174 1206.08 568.804 1178.47 503.867 1136.4 C 499.791 1121.49 496.653 1108.15 493.36 1093.03 z"/>
<path transform="translate(0,0)" fill="rgb(156,210,244)" d="M 1354.64 919.333 C 1357.58 919.109 1356.29 918.669 1358.69 920.233 C 1360.89 928.706 1357.47 945.28 1356.66 954.676 C 1346 1078.81 1243.62 1195.52 1116.59 1205.09 C 1098.07 1206.49 1079.32 1207.16 1060.75 1207.98 L 1057.28 1207.55 C 1057.43 1207.41 1102.08 1189.53 1108.56 1186.17 C 1128.75 1175.75 1147.48 1162.71 1164.26 1147.39 C 1196.46 1117.88 1221.06 1081.02 1235.97 1039.96 C 1245.37 1014.13 1250.36 992.844 1267.85 969.992 C 1289.93 941.129 1318.92 924.402 1354.64 919.333 z"/>
<path transform="translate(0,0)" fill="rgb(10,40,77)" d="M 1322.17 950.584 C 1325.66 949.024 1329.71 949.469 1332.78 951.748 C 1335.85 954.026 1337.44 957.783 1336.96 961.573 C 1336.47 965.362 1333.98 968.593 1330.43 970.023 C 1325.09 972.178 1319.01 969.659 1316.76 964.361 C 1314.51 959.062 1316.91 952.935 1322.17 950.584 z"/>
<path transform="translate(0,0)" fill="rgb(254,255,254)" d="M 855.658 1195.82 C 806.394 1188.03 737.725 1174.08 688.706 1157.07 C 630.059 1136.71 522.666 1097.88 490.654 1040.58 C 485.031 1030.52 484.402 1015.28 488.851 1004.54 C 502.42 971.788 544.866 950.785 575.036 937.394 C 584.602 946.9 594.099 956.474 603.526 966.118 C 615.106 977.375 628.095 990.799 639.786 1001.56 C 649.046 1010.1 658.164 1017.22 668.309 1024.6 C 644.025 1033.02 607.557 1048.36 601.521 1076.98 C 600.501 1081.81 601.368 1088.08 601.918 1093.04 C 647.142 1114.28 693.93 1132.01 741.87 1146.08 C 754.27 1149.65 766.773 1152.85 779.362 1155.67 C 785.134 1157 802.45 1160.23 806.227 1162.66 C 822.522 1173.14 839.135 1185.47 855.658 1195.82 z"/>
<path transform="translate(0,0)" fill="rgb(59,144,209)" d="M 567.844 1075.58 C 554.702 1067.4 536.784 1056.57 530.864 1041.73 C 514.901 1001.71 577.055 977.053 603.526 966.118 C 615.106 977.375 628.095 990.799 639.786 1001.56 C 606.901 1016.96 570.5 1035.05 567.844 1075.58 z"/>
<path transform="translate(0,0)" fill="rgb(59,144,209)" d="M 585.47 724.047 C 681.485 765.431 743.003 860.215 776.684 956.201 C 778.552 961.527 789.766 995.24 789.137 998.231 C 788.787 997.924 786.977 996.375 786.73 996.078 C 768.997 980.93 742.126 952.833 724.676 935.9 C 700.188 912.357 675.972 888.532 652.034 864.429 C 613.991 825.426 592.417 801.277 585.852 744.15 C 585.543 737.294 585.163 730.915 585.47 724.047 z"/>
<path transform="translate(0,0)" fill="rgb(156,210,244)" d="M 585.47 724.047 C 681.485 765.431 743.003 860.215 776.684 956.201 C 778.552 961.527 789.766 995.24 789.137 998.231 C 788.787 997.924 786.977 996.375 786.73 996.078 C 786.407 995.175 786.084 994.272 785.761 993.37 C 746.06 900.866 680.039 787.006 585.852 744.15 C 585.543 737.294 585.163 730.915 585.47 724.047 z"/>
<path transform="translate(0,0)" fill="rgb(254,255,254)" d="M 669.115 1314.74 C 682.067 1318.47 695.114 1321.87 708.241 1324.93 C 715.18 1326.6 727.621 1329.24 733.787 1331.65 C 773.529 1337.96 805.193 1344 846.255 1348.17 C 879.474 1376.95 908.272 1395.96 946.153 1417.08 C 976.382 1431.81 996.351 1440.44 1028.04 1451.61 C 925.814 1453.93 809.945 1419.38 726.322 1360.89 C 704.078 1345.33 689.263 1332.84 669.115 1314.74 z"/>
<path transform="translate(0,0)" fill="rgb(59,144,209)" d="M 733.787 1331.65 C 773.529 1337.96 805.193 1344 846.255 1348.17 C 879.474 1376.95 908.272 1395.96 946.153 1417.08 C 879.16 1407.51 787.374 1373.72 733.787 1331.65 z"/>
<path transform="translate(0,0)" fill="rgb(59,144,209)" d="M 552.354 873.913 C 603.949 871.985 625.559 878.707 660.83 915.385 C 664.403 918.149 668.619 922.521 671.952 925.708 C 707.557 959.754 742.062 995.254 778.073 1028.85 L 767.26 1039.52 C 701.49 1020.59 670.312 990.361 624.617 945.026 C 606.058 926.563 587.357 908.243 568.516 890.067 L 552.354 873.913 z"/>
<path transform="translate(0,0)" fill="rgb(156,210,244)" d="M 552.354 873.913 C 603.949 871.985 625.559 878.707 660.83 915.385 C 656.022 914.157 640.752 907.576 635.08 905.407 C 610.806 896.121 594.035 892.192 568.516 890.067 L 552.354 873.913 z"/>
<path transform="translate(0,0)" fill="rgb(156,210,244)" d="M 1041.73 707.644 L 1058.47 710.719 C 1113.71 725.847 1108.2 760.91 1108.67 808.245 C 1108.76 817.84 1108.85 827.74 1108.94 837.326 C 1083.36 826.587 1069.37 823.462 1041.46 824.138 C 1034.9 824.736 1028.35 825.751 1021.83 826.675 C 1042.3 779.25 1038.73 755.56 1041.73 707.644 z"/>
<path transform="translate(0,0)" fill="rgb(213,237,252)" d="M 1041.73 707.644 L 1058.47 710.719 C 1056.5 745.53 1055.51 791.744 1041.46 824.138 C 1034.9 824.736 1028.35 825.751 1021.83 826.675 C 1042.3 779.25 1038.73 755.56 1041.73 707.644 z"/>
<path transform="translate(0,0)" fill="rgb(10,40,77)" d="M 1073.31 737.558 C 1076.88 736.361 1080.82 737.189 1083.61 739.722 C 1086.39 742.254 1087.59 746.096 1086.74 749.764 C 1085.89 753.432 1083.12 756.354 1079.51 757.402 C 1074.07 758.976 1068.38 755.915 1066.69 750.514 C 1065 745.113 1067.95 739.355 1073.31 737.558 z"/>
<path transform="translate(0,0)" fill="rgb(254,255,254)" d="M 1226.32 675.251 C 1235.71 677.077 1241.13 677.863 1249.39 682.904 C 1261.98 700.832 1250.43 712.27 1235.7 722.74 C 1207.86 725.275 1191.92 689.275 1226.32 675.251 z"/>
<path transform="translate(0,0)" fill="rgb(59,144,209)" d="M 1388.67 699.045 C 1399.08 701.614 1434.08 719.385 1435.46 729.912 C 1419.68 728.332 1403.16 727.7 1387.31 726.915 L 1388.67 699.045 z"/>
<path transform="translate(0,0)" fill="rgb(59,144,209)" d="M 1415.28 953.517 C 1455.08 969.054 1564.89 1007.18 1499.57 1062.83 C 1492.81 1067.83 1487.4 1071.04 1480.12 1075.35 C 1478.32 1034.82 1440.12 1015.78 1407.5 1001.28 C 1411.45 985.608 1414.05 969.63 1415.28 953.517 z"/>
<path transform="translate(0,0)" fill="rgb(10,40,77)" d="M 1398.8 1031.6 C 1414.41 1039.18 1431.25 1048.04 1440.88 1063.07 C 1447.39 1073.23 1446.56 1081.94 1445.8 1093.25 C 1425.34 1102.93 1404.47 1111.73 1383.26 1119.64 C 1371.55 1124.15 1359.5 1128.07 1347.6 1132.08 C 1369.93 1101.54 1387.22 1067.62 1398.8 1031.6 z"/>
<path transform="translate(0,0)" fill="rgb(59,144,209)" d="M 794.453 917.914 C 818.515 914.235 842.674 911.216 866.901 908.86 C 853.375 921.614 823.464 950.966 809.529 959.17 C 805.365 944.525 800.151 931.962 794.453 917.914 z"/>
</svg>